<?xml version="1.0" encoding="utf-8"?>
<!-- Generator: Adobe Illustrator 24.1.3, SVG Export Plug-In . SVG Version: 6.00 Build 0)  -->
<svg version="1.1" id="Layer_1" xmlns="http://www.w3.org/2000/svg" xmlns:xlink="http://www.w3.org/1999/xlink" x="0px" y="0px"
	 viewBox="0 0 72 72" style="enable-background:new 0 0 72 72;" xml:space="preserve">
<style type="text/css">
	.st0{fill:#FFFFFF;}
</style>
<g id="Guides">
</g>
<g id="PRIMARY_-_GHOST">
	<path class="st0" d="M51.48085,44.5388c-5.5863-2.7042-6.4766-6.8794-6.5163-7.1891c-0.0479-0.3751-0.1023-0.6701,0.3115-1.0516
		c0.3991-0.3687,2.1696-1.4645,2.6609-1.8074c0.812-0.56779,1.1696-1.1346,0.906-1.8314c-0.1843-0.482-0.6332-0.6636-1.106-0.6636
		c-0.1491,0.0005-0.2978,0.0171-0.4433,0.0498c-0.8922,0.1936-1.7586,0.64059-2.2599,0.7613
		c-0.0602,0.0155-0.1221,0.0239-0.1843,0.02489c-0.2673,0-0.3687-0.1189-0.3429-0.4406c0.0627-0.9751,0.1954-2.8784,0.0415-4.6563
		c-0.2111-2.4461-1-3.6581-1.9355-4.73c-0.4525-0.5198-2.554-2.753-6.6093-2.753s-6.154,2.2332-6.6038,2.7466
		c-0.9383,1.0719-1.7263,2.2839-1.9355,4.73c-0.1539,1.7779-0.0157,3.6803,0.0415,4.6563c0.0184,0.306-0.0756,0.4406-0.3429,0.4406
		c-0.0622-0.0011-0.1241-0.0094-0.1843-0.02489c-0.5005-0.1207-1.3668-0.5678-2.259-0.7613
		c-0.1455-0.0326-0.2942-0.0493-0.4433-0.0498c-0.4747,0-0.9217,0.1843-1.106,0.6636c-0.2636,0.6968,0.0922,1.2636,0.9069,1.8314
		c0.4913,0.3429,2.2618,1.43781,2.6609,1.8074c0.4129,0.3816,0.3595,0.6765,0.3115,1.0516
		c-0.0396,0.3143-0.9309,4.4895-6.5163,7.1891c-0.3272,0.1585-0.8839,0.494,0.0977,1.036c1.541,0.8516,2.5669,0.7604,3.3641,1.2738
		c0.6765,0.436,0.2765,1.3761,0.7687,1.71519c0.6046,0.4175,2.3918-0.0295,4.7006,0.7327
		c1.9355,0.63779,3.1116,2.4397,6.5439,2.4397s4.6425-1.8102,6.5439-2.4397c2.3042-0.7622,4.095-0.3152,4.7006-0.7327
		c0.4913-0.3392,0.0922-1.2793,0.7687-1.71519c0.7973-0.5134,1.8222-0.4221,3.3641-1.2738
		C52.36475,45.0328,51.80805,44.6973,51.48085,44.5388z"/>
	<path d="M53.91135,44.22079c-0.2507-0.682-0.7281-1.047-1.2719-1.3493c-0.1023-0.0599-0.1963-0.1078-0.2765-0.1447
		c-0.1622-0.0839-0.3281-0.165-0.4931-0.2507c-1.695-0.8986-3.0185-2.0323-3.9365-3.3761
		c-0.2607-0.3783-0.4868-0.7793-0.6756-1.1982c-0.0783-0.224-0.0747-0.3512-0.0184-0.4673
		c0.0558-0.0895,0.1295-0.1664,0.2166-0.2258c0.2912-0.1926,0.5917-0.388,0.7954-0.5198c0.3631-0.235,0.6507-0.4212,0.836-0.553
		c0.6959-0.4866,1.1825-1.0037,1.4867-1.5816c0.4294-0.8079,0.4862-1.7626,0.1558-2.6157
		c-0.4608-1.2129-1.6065-1.9659-2.9945-1.9659c-0.2928-0.0003-0.5848,0.0306-0.871,0.0922
		c-0.0765,0.0166-0.153,0.0341-0.2277,0.0535c0.0129-0.8295-0.0055-1.7051-0.0793-2.5669c-0.2618-3.0296-1.3226-4.6176-2.4286-5.884
		c-0.7083-0.7936-1.5425-1.465-2.4692-1.9871c-1.6784-0.9585-3.5816-1.4452-5.6563-1.4452s-3.9687,0.4866-5.649,1.4452
		c-0.9289,0.5223-1.7649,1.1951-2.4738,1.9908c-1.106,1.2664-2.1669,2.8572-2.4286,5.884c-0.0737,0.8618-0.0922,1.742-0.0802,2.5669
		c-0.0747-0.0194-0.1502-0.0369-0.2267-0.0535c-0.2862-0.0615-0.5782-0.0924-0.871-0.0922c-1.389,0-2.5365,0.753-2.9955,1.9659
		c-0.332,0.8535-0.2765,1.8092,0.1521,2.6185c0.3051,0.5779,0.7917,1.095,1.4876,1.5816c0.1843,0.129,0.4728,0.3152,0.836,0.553
		c0.1963,0.1272,0.483,0.3134,0.7641,0.4995c0.0984,0.0636,0.1819,0.1475,0.2452,0.2461c0.059,0.1207,0.0608,0.2507-0.0267,0.4903
		c-0.1862,0.41-0.4086,0.8027-0.6645,1.1733c-0.8977,1.3134-2.1825,2.4268-3.8231,3.318c-0.8691,0.4608-1.7724,0.7687-2.154,1.8056
		c-0.2876,0.7825-0.0995,1.6728,0.6313,2.4231l0,0c0.2682,0.28,0.5794,0.5155,0.9217,0.6977
		c0.7123,0.3914,1.4696,0.6944,2.2553,0.9023c0.1621,0.0418,0.3161,0.1107,0.4553,0.2037
		c0.2664,0.2332,0.2286,0.5843,0.5834,1.09859c0.1781,0.2658,0.4045,0.4959,0.6673,0.6784
		c0.7447,0.51431,1.5816,0.5466,2.4683,0.5807c0.8009,0.0304,1.7088,0.0654,2.7457,0.40739
		c0.4295,0.1419,0.8756,0.4166,1.3927,0.7373c1.2415,0.7631,2.9411,1.8074,5.7854,1.8074s4.5558-1.0498,5.8066-1.8157
		c0.5134-0.3152,0.9567-0.5871,1.3742-0.7254c1.0369-0.3429,1.9447-0.377,2.7457-0.40739c0.8867-0.0341,1.7235-0.0664,2.4683-0.5807
		c0.3113-0.21709,0.5706-0.5003,0.7595-0.8295c0.2553-0.4341,0.2489-0.7373,0.4885-0.9493
		c0.1306-0.0886,0.2752-0.1546,0.4277-0.1954c0.7964-0.2085,1.5641-0.5144,2.2858-0.9106c0.3637-0.1951,0.6911-0.4514,0.9678-0.7576
		l0.0092-0.0111C54.02005,45.8485,54.19245,44.98389,53.91135,44.22079z M51.38315,45.57929
		c-1.542,0.8516-2.5669,0.7604-3.3641,1.2738c-0.6774,0.436-0.2765,1.3761-0.7687,1.71519
		c-0.6046,0.4175-2.3918-0.0295-4.7006,0.7327c-1.9042,0.6295-3.119,2.4397-6.5439,2.4397c-3.425,0-4.6112-1.8065-6.5467-2.4443
		c-2.3042-0.7622-4.095-0.3152-4.7006-0.7327c-0.4913-0.3392-0.0922-1.2793-0.7687-1.71519
		c-0.7982-0.5134-1.8231-0.4221-3.3641-1.2691c-0.9816-0.5419-0.4249-0.8774-0.0977-1.036
		c5.5854-2.7042,6.4766-6.8794,6.5163-7.1891c0.0479-0.3751,0.1014-0.6701-0.3115-1.0516
		c-0.3991-0.3687-2.1696-1.4645-2.6609-1.8074c-0.8129-0.56779-1.1705-1.1346-0.9069-1.8314
		c0.1843-0.482,0.6341-0.6636,1.106-0.6636c0.1491,0.0005,0.2978,0.01711,0.4433,0.0498c0.8922,0.1936,1.7586,0.64059,2.259,0.7613
		c0.0603,0.0155,0.1221,0.0238,0.1843,0.02489c0.2673,0,0.3613-0.1346,0.3429-0.4406c-0.0571-0.9761-0.1954-2.8784-0.0415-4.6563
		c0.2111-2.4461,0.9991-3.6581,1.9355-4.73c0.4498-0.5152,2.5632-2.7484,6.6047-2.7484s6.1605,2.224,6.6103,2.7374
		c0.9373,1.0719,1.7263,2.2839,1.9355,4.73c0.1539,1.7779,0.0212,3.6812-0.0415,4.6563
		c-0.0212,0.3217,0.0756,0.44061,0.3429,0.44061c0.0622-0.001,0.1241-0.0094,0.1843-0.0249
		c0.5014-0.1207,1.3678-0.56779,2.2599-0.7613c0.1455-0.0326,0.2942-0.0493,0.4433-0.0498c0.4747,0,0.9217,0.1843,1.106,0.6636
		c0.2636,0.6968-0.0922,1.2636-0.906,1.83141c-0.4913,0.3429-2.2618,1.4378-2.6609,1.8074
		c-0.4138,0.3816-0.3595,0.6765-0.3115,1.05161c0.0396,0.3143,0.93,4.48949,6.5163,7.18909
		C51.80805,44.6973,52.36475,45.0328,51.38315,45.57929z"/>
</g>
</svg>
